<svg width="58" height="43" viewBox="0 0 58 43" fill="none" xmlns="http://www.w3.org/2000/svg">
    <rect width="58" height="43" fill="#038100"/>
    <path d="M19.335 21.6543V29.6647C19.335 30.4017 19.9344 30.9998 20.67 30.9998H27.3454V21.6543H19.335Z" fill="white"/>
    <path d="M30.0156 21.6543V30.9998H36.691C37.4279 30.9998 38.0261 30.4017 38.0261 29.6647V21.6543H30.0156Z" fill="white"/>
    <path d="M38.0261 16.3146H33.8019C34.105 16.1077 34.3653 15.9021 34.5469 15.7178C35.6243 14.6351 35.6243 12.8728 34.5469 11.79C33.5002 10.7353 31.6765 10.738 30.6311 11.79C30.0517 12.3708 28.5164 14.7352 28.7286 16.3146H28.6325C28.8435 14.7352 27.3081 12.3708 26.73 11.79C25.6833 10.738 23.8596 10.738 22.8143 11.79C21.7382 12.8728 21.7382 14.6351 22.8129 15.7178C22.9958 15.9021 23.2562 16.1077 23.5592 16.3146H19.3351C18.5994 16.3146 18 16.914 18 17.6497V19.6523C18 20.0207 18.2991 20.3198 18.6675 20.3198H27.3455V17.6497H30.0156V20.3198H38.6936C39.0621 20.3198 39.3611 20.0207 39.3611 19.6523V17.6497C39.3611 16.914 38.763 16.3146 38.0261 16.3146ZM27.2667 16.2705C27.2667 16.2705 27.2107 16.3146 27.0197 16.3146C26.0972 16.3146 24.3363 15.356 23.7608 14.7766C23.2014 14.2132 23.2014 13.2947 23.7608 12.7313C24.0319 12.4589 24.391 12.3094 24.7728 12.3094C25.1533 12.3094 25.5124 12.4589 25.7835 12.7313C26.6833 13.6364 27.5778 15.9488 27.2667 16.2705ZM30.3401 16.3146C30.1505 16.3146 30.0944 16.2719 30.0944 16.2705C29.7833 15.9488 30.6778 13.6364 31.5777 12.7313C32.1157 12.1879 33.0569 12.1852 33.6003 12.7313C34.161 13.2947 34.161 14.2132 33.6003 14.7766C33.0249 15.356 31.2639 16.3146 30.3401 16.3146Z" fill="white"/>
</svg>
