<svg width="20" height="20" viewBox="0 0 20 20" fill="none" xmlns="http://www.w3.org/2000/svg">
    <circle cx="10" cy="10" r="10" fill="#344E9F"/>
    <path d="M5.625 10.3066V14.0566C5.625 14.4016 5.90562 14.6816 6.25 14.6816H9.375V10.3066H5.625Z" fill="white"/>
    <path d="M14.375 7.80657H12.3975C12.5394 7.7097 12.6613 7.61345 12.7463 7.5272C13.2506 7.02032 13.2506 6.19532 12.7463 5.68845C12.2562 5.1947 11.4025 5.19595 10.9131 5.68845C10.6419 5.96032 9.92313 7.0672 10.0225 7.80657H9.9775C10.0763 7.0672 9.3575 5.96032 9.08687 5.68845C8.59687 5.19595 7.74312 5.19595 7.25375 5.68845C6.75 6.19532 6.75 7.02032 7.25312 7.5272C7.33875 7.61345 7.46062 7.7097 7.6025 7.80657H5.625C5.28062 7.80657 5 8.0872 5 8.43157V9.36907C5 9.54157 5.14 9.68157 5.3125 9.68157H9.375V8.43157H10.625V9.68157H14.6875C14.86 9.68157 15 9.54157 15 9.36907V8.43157C15 8.0872 14.72 7.80657 14.375 7.80657ZM9.33813 7.78595C9.33813 7.78595 9.31187 7.80657 9.2225 7.80657C8.79063 7.80657 7.96625 7.35782 7.69688 7.08657C7.435 6.82282 7.435 6.39282 7.69688 6.12907C7.82375 6.00157 7.99187 5.93157 8.17062 5.93157C8.34875 5.93157 8.51688 6.00157 8.64375 6.12907C9.065 6.55282 9.48375 7.63532 9.33813 7.78595ZM10.7769 7.80657C10.6881 7.80657 10.6619 7.78657 10.6619 7.78595C10.5163 7.63532 10.935 6.55282 11.3562 6.12907C11.6081 5.8747 12.0488 5.87345 12.3031 6.12907C12.5656 6.39282 12.5656 6.82282 12.3031 7.08657C12.0338 7.35782 11.2094 7.80657 10.7769 7.80657Z" fill="white"/>
    <path d="M10.625 10.3066V14.6816H13.75C14.095 14.6816 14.375 14.4016 14.375 14.0566V10.3066H10.625Z" fill="white"/>
</svg>
