<svg width="20" height="20" viewBox="0 0 20 20" fill="none" xmlns="http://www.w3.org/2000/svg">
    <circle cx="10" cy="10" r="10" fill="#E30613"/>
    <path d="M6.59986 14L12.6024 6H13.3952L7.3978 14H6.59986ZM8.15971 10C7.66207 10 7.26739 9.8284 6.97567 9.4852C6.68395 9.142 6.53809 8.67868 6.53809 8.09524C6.53809 7.50837 6.68395 7.04505 6.97567 6.70528C7.26739 6.36208 7.66207 6.19048 8.15971 6.19048C8.65392 6.19048 9.04688 6.36208 9.3386 6.70528C9.63032 7.04505 9.77618 7.50837 9.77618 8.09524C9.77618 8.67868 9.63032 9.142 9.3386 9.4852C9.04688 9.8284 8.65392 10 8.15971 10ZM8.15971 9.49035C8.42054 9.49035 8.62818 9.36508 8.78262 9.11454C8.93706 8.86057 9.01428 8.52081 9.01428 8.09524C9.01428 7.66624 8.93706 7.32647 8.78262 7.07593C8.62818 6.82196 8.42054 6.69498 8.15971 6.69498C7.89544 6.69498 7.68609 6.82196 7.53165 7.07593C7.37721 7.32647 7.29999 7.66624 7.29999 8.09524C7.29999 8.52081 7.37721 8.86057 7.53165 9.11454C7.68609 9.36508 7.89544 9.49035 8.15971 9.49035ZM11.8405 13.8095C11.3429 13.8095 10.9482 13.6379 10.6565 13.2947C10.3682 12.9515 10.2241 12.4882 10.2241 11.9048C10.2241 11.3213 10.3682 10.858 10.6565 10.5148C10.9482 10.1716 11.3429 10 11.8405 10C12.3382 10 12.7329 10.1716 13.0246 10.5148C13.3163 10.858 13.4622 11.3213 13.4622 11.9048C13.4622 12.4882 13.3163 12.9515 13.0246 13.2947C12.7329 13.6379 12.3382 13.8095 11.8405 13.8095ZM11.8405 13.2999C12.1048 13.2999 12.3141 13.1746 12.4686 12.9241C12.623 12.6735 12.7002 12.3338 12.7002 11.9048C12.7002 11.4758 12.623 11.136 12.4686 10.8855C12.3141 10.6315 12.1048 10.5045 11.8405 10.5045C11.5797 10.5045 11.3721 10.6315 11.2176 10.8855C11.0632 11.136 10.986 11.4758 10.986 11.9048C10.986 12.3338 11.0632 12.6735 11.2176 12.9241C11.3721 13.1746 11.5797 13.2999 11.8405 13.2999Z" fill="white"/>
</svg>
